<svg width="24" height="24" viewBox="0 0 24 24" fill="none" xmlns="http://www.w3.org/2000/svg">
<path opacity="0.4" d="M12 22C17.5228 22 22 17.5228 22 12C22 6.47715 17.5228 2 12 2C6.47715 2 2 6.47715 2 12C2 17.5228 6.47715 22 12 22Z" fill="#292D32"/>
<path d="M8 14.75C7.81 14.75 7.62 14.68 7.47 14.53L5.47 12.53C5.18 12.24 5.18 11.7599 5.47 11.4699L7.47 9.46994C7.76 9.17994 8.24 9.17994 8.53 9.46994C8.82 9.75994 8.82 10.24 8.53 10.53L7.06 12L8.53 13.4699C8.82 13.7599 8.82 14.24 8.53 14.53C8.38 14.68 8.19 14.75 8 14.75Z" fill="#292D32"/>
<path d="M16 14.75C15.81 14.75 15.62 14.68 15.47 14.53C15.18 14.24 15.18 13.7599 15.47 13.4699L16.94 12L15.47 10.53C15.18 10.24 15.18 9.75994 15.47 9.46994C15.76 9.17994 16.24 9.17994 16.53 9.46994L18.53 11.4699C18.82 11.7599 18.82 12.24 18.53 12.53L16.53 14.53C16.38 14.68 16.19 14.75 16 14.75Z" fill="#292D32"/>
<path d="M11 15.0801C10.9 15.0801 10.8 15.0601 10.71 15.0201C10.33 14.8601 10.15 14.4201 10.32 14.0301L12.32 9.36004C12.48 8.98004 12.92 8.80002 13.3 8.97002C13.68 9.13002 13.86 9.57008 13.69 9.96008L11.69 14.6301C11.57 14.9101 11.29 15.0801 11 15.0801Z" fill="#292D32"/>
</svg>
