<svg width="43" height="34" viewBox="0 0 43 34" fill="none" xmlns="http://www.w3.org/2000/svg">
<g clip-path="url(#clip0_628_1840)">
<path d="M38.7 0H4.3C1.92855 0 0 1.90612 0 4.25V29.75C0 32.0939 1.92855 34 4.3 34H38.7C41.0715 34 43 32.0939 43 29.75V4.25C43 1.90612 41.0715 0 38.7 0ZM38.7 4.25V5.33588L21.5 18.5597L4.3 5.338V4.25H38.7ZM4.3 29.75V10.7185L20.1799 22.9266C20.5564 23.2188 21.0213 23.3778 21.5 23.3778C21.9788 23.3778 22.4436 23.2188 22.8201 22.9266L38.7 10.7185L38.7043 29.75H4.3Z" fill="black"/>
</g>
<defs>
<clipPath id="clip0_628_1840">
<rect width="43" height="34" fill="white"/>
</clipPath>
</defs>
</svg>
