<svg width="44" height="44" viewBox="0 0 44 44" fill="none" xmlns="http://www.w3.org/2000/svg">
<path d="M27.4167 40.0554V32.8332C27.6679 30.5714 27.0193 28.3015 25.6111 26.5138C31.0278 26.5138 36.4445 22.9027 36.4445 16.5832C36.5889 14.3263 35.957 12.1054 34.6389 10.2638C35.1445 8.18739 35.1445 6.02072 34.6389 3.94434C34.6389 3.94434 32.8334 3.94434 29.2222 6.65267C24.4556 5.74989 19.5445 5.74989 14.7778 6.65267C11.1667 3.94434 9.36113 3.94434 9.36113 3.94434C8.81946 6.02072 8.81946 8.18739 9.36113 10.2638C8.04646 12.098 7.40837 14.3313 7.55558 16.5832C7.55558 22.9027 12.9722 26.5138 18.3889 26.5138C17.6847 27.3985 17.1611 28.4096 16.8542 29.4929C16.5472 30.5763 16.457 31.7138 16.5834 32.8332V40.0554" stroke="#111827" stroke-width="3.61111" stroke-linecap="round" stroke-linejoin="round"/>
<path d="M16.5833 32.8333C8.44029 36.4444 7.55557 29.2222 3.94446 29.2222" stroke="#111827" stroke-width="3.61111" stroke-linecap="round" stroke-linejoin="round"/>
</svg>
