<svg width="19" height="19" viewBox="0 0 19 19" fill="none" xmlns="http://www.w3.org/2000/svg">
<path d="M16.6728 2.44793C17.9133 3.79486 18.5328 5.64355 18.5328 7.99732V18.3654H13.1281V8.72803C13.1281 7.54104 12.8201 6.61838 12.2057 5.96175C11.5914 5.30512 10.7633 4.97512 9.72642 4.97512C8.68958 4.97512 7.86142 5.30343 7.24706 5.96175C6.6327 6.61838 6.32469 7.54104 6.32469 8.72803V18.3654H0.888062V0.617776H6.32469V2.97155C6.87509 2.18696 7.6174 1.56738 8.54988 1.1111C9.48236 0.654826 10.531 0.427521 11.6974 0.427521C13.7745 0.427521 15.434 1.10099 16.6728 2.44624V2.44793Z" fill="#FEFFFC"/>
</svg>
