<svg width="34" height="35" viewBox="0 0 34 35" fill="none" xmlns="http://www.w3.org/2000/svg">
<path d="M32.7895 8.63483C33.1744 7.3932 33.2979 6.08528 33.1522 4.79355C33.0064 3.50182 32.5946 2.2543 31.9427 1.12965C31.8321 0.938177 31.6731 0.779184 31.4816 0.668659C31.2902 0.558133 31.0729 0.499971 30.8519 0.500021C29.3851 0.49695 27.938 0.836973 26.6261 1.49292C25.3142 2.14887 24.1739 3.10256 23.2963 4.2778H19.5185C18.6409 3.10256 17.5006 2.14887 16.1887 1.49292C14.8768 0.836973 13.4297 0.49695 11.963 0.500021C11.7419 0.499971 11.5247 0.558133 11.3332 0.668659C11.1417 0.779184 10.9827 0.938177 10.8721 1.12965C10.2202 2.2543 9.80841 3.50182 9.66266 4.79355C9.5169 6.08528 9.64037 7.3932 10.0253 8.63483C9.24726 9.99281 8.83049 11.5276 8.81481 13.0926V14.3519C8.81746 16.4825 9.59094 18.5403 10.9924 20.1452C12.3939 21.75 14.3287 22.7936 16.4396 23.0833C15.578 24.1858 15.1103 25.5451 15.1111 26.9445V28.2037H11.3333C10.3314 28.2037 9.37051 27.8057 8.66204 27.0972C7.95357 26.3888 7.55556 25.4279 7.55556 24.4259C7.55556 23.5991 7.3927 22.7804 7.07628 22.0165C6.75986 21.2526 6.29608 20.5585 5.71141 19.9738C5.12675 19.3891 4.43265 18.9253 3.66875 18.6089C2.90485 18.2925 2.0861 18.1296 1.25926 18.1296C0.925283 18.1296 0.604985 18.2623 0.368829 18.4985C0.132672 18.7346 0 19.0549 0 19.3889C0 19.7229 0.132672 20.0432 0.368829 20.2793C0.604985 20.5155 0.925283 20.6482 1.25926 20.6482C2.26119 20.6482 3.22208 21.0462 3.93055 21.7547C4.63902 22.4631 5.03704 23.424 5.03704 24.4259C5.03704 26.0958 5.70039 27.6973 6.88118 28.8781C8.06196 30.0589 9.66345 30.7222 11.3333 30.7222H15.1111V33.2408C15.1111 33.5747 15.2438 33.895 15.4799 34.1312C15.7161 34.3673 16.0364 34.5 16.3704 34.5C16.7043 34.5 17.0246 34.3673 17.2608 34.1312C17.497 33.895 17.6296 33.5747 17.6296 33.2408V26.9445C17.6296 25.9425 18.0276 24.9816 18.7361 24.2732C19.4446 23.5647 20.4055 23.1667 21.4074 23.1667C22.4093 23.1667 23.3702 23.5647 24.0787 24.2732C24.7872 24.9816 25.1852 25.9425 25.1852 26.9445V33.2408C25.1852 33.5747 25.3179 33.895 25.554 34.1312C25.7902 34.3673 26.1105 34.5 26.4444 34.5C26.7784 34.5 27.0987 34.3673 27.3349 34.1312C27.571 33.895 27.7037 33.5747 27.7037 33.2408V26.9445C27.7045 25.5451 27.2368 24.1858 26.3752 23.0833C28.4861 22.7936 30.4209 21.75 31.8224 20.1452C33.2239 18.5403 33.9973 16.4825 34 14.3519V13.0926C33.9843 11.5276 33.5676 9.99281 32.7895 8.63483ZM31.4815 14.3519C31.4815 16.0218 30.8181 17.6232 29.6373 18.804C28.4566 19.9848 26.8551 20.6482 25.1852 20.6482H17.6296C15.9597 20.6482 14.3583 19.9848 13.1775 18.804C11.9967 17.6232 11.3333 16.0218 11.3333 14.3519V13.0926C11.3488 11.8334 11.7258 10.6051 12.4194 9.55409C12.5488 9.38365 12.6325 9.18307 12.6628 8.97129C12.6931 8.7595 12.6689 8.54349 12.5926 8.34363C12.2646 7.49772 12.1067 6.5954 12.1281 5.68837C12.1494 4.78134 12.3495 3.88744 12.7169 3.05789C13.7475 3.16876 14.7399 3.51015 15.6206 4.05675C16.5013 4.60336 17.2476 5.34117 17.8044 6.21548C17.9178 6.39289 18.0739 6.53901 18.2584 6.64048C18.443 6.74195 18.65 6.79553 18.8606 6.79632H23.9527C24.1641 6.79632 24.372 6.74312 24.5574 6.64161C24.7429 6.54011 24.8997 6.39356 25.0136 6.21548C25.5702 5.34109 26.3166 4.60322 27.1973 4.05661C28.078 3.50999 29.0704 3.16864 30.101 3.05789C30.4679 3.88765 30.6675 4.78166 30.6883 5.68868C30.7091 6.59571 30.5507 7.49792 30.2222 8.34363C30.1461 8.54158 30.1206 8.7554 30.1481 8.96569C30.1756 9.17597 30.2552 9.37606 30.3796 9.5478C31.0802 10.5988 31.4627 11.8296 31.4815 13.0926V14.3519Z" fill="black"/>
</svg>
