<svg width="19" height="19" viewBox="0 0 19 19" fill="none" xmlns="http://www.w3.org/2000/svg">
<path d="M16.6728 2.94814C17.9133 4.29508 18.5327 6.14376 18.5327 8.49754V18.8656H13.1281V9.22824C13.1281 8.04125 12.82 7.11859 12.2057 6.46196C11.5913 5.80533 10.7632 5.47533 9.72636 5.47533C8.68952 5.47533 7.86136 5.80365 7.247 6.46196C6.63264 7.11859 6.32463 8.04125 6.32463 9.22824V18.8656H0.888V1.11799H6.32463V3.47176C6.87502 2.68717 7.61734 2.06759 8.54982 1.61131C9.4823 1.15504 10.5309 0.927734 11.6974 0.927734C13.7744 0.927734 15.434 1.6012 16.6728 2.94646V2.94814Z" fill="#FEFFFC"/>
</svg>
